<?xml version="1.0" standalone="no"?>
<svg xmlns:xlink="http://www.w3.org/1999/xlink" id="wave" style="transform:rotate(0deg); transition: 0.3s" viewBox="0 0 1440 310" version="1.1" xmlns="http://www.w3.org/2000/svg"><defs><linearGradient id="sw-gradient-0" x1="0" x2="0" y1="1" y2="0"><stop stop-color="rgba(87, 202, 127, 1)" offset="0%"/><stop stop-color="rgba(0, 0, 0, 1)" offset="100%"/></linearGradient></defs><path style="transform:translate(0, 0px); opacity:1" fill="url(#sw-gradient-0)" d="M0,62L1440,279L2880,31L4320,62L5760,93L7200,248L8640,62L10080,248L11520,217L12960,124L14400,279L15840,0L17280,93L18720,93L20160,0L21600,0L23040,279L24480,279L25920,62L27360,279L28800,279L30240,31L31680,155L33120,0L34560,93L34560,310L33120,310L31680,310L30240,310L28800,310L27360,310L25920,310L24480,310L23040,310L21600,310L20160,310L18720,310L17280,310L15840,310L14400,310L12960,310L11520,310L10080,310L8640,310L7200,310L5760,310L4320,310L2880,310L1440,310L0,310Z"/></svg>